<svg xmlns="http://www.w3.org/2000/svg" width="46" height="28" fill="none" viewBox="0 0 46 28"><path fill="#fff" d="m8.128 18.964 6.3-13.608 6.3 13.608Zm14.112 3.24 2.052 4.428h3.564L16.12 1.432h-3.384L1 26.632h3.564l2.052-4.428ZM28.203 3.448c0 .72.216 1.296.684 1.764s1.043.684 1.764.684c.683 0 1.26-.216 1.728-.684s.72-1.044.72-1.764c0-.684-.252-1.26-.72-1.728A2.36 2.36 0 0 0 30.65 1c-.72 0-1.296.252-1.764.72s-.684 1.044-.684 1.728m3.996 5.184h-3.096v18h3.096ZM38.618 11.332v-2.7H35.63v18h3.096v-8.388c0-1.008.072-1.908.252-2.772q.216-1.242.864-2.16a4.4 4.4 0 0 1 1.656-1.368c.648-.324 1.512-.504 2.52-.504.324 0 .612.036.9.072s.576.072.9.144V8.38l-.864-.108a8 8 0 0 0-.9-.072c-1.296 0-2.376.288-3.276.828s-1.62 1.296-2.16 2.304"/></svg>