<svg xmlns="http://www.w3.org/2000/svg" width="1451" height="547" fill="none" viewBox="0 0 1451 547"><rect width="82.611" height="30.843" x="1138.98" y="390.084" stroke="#2060f6" stroke-width="3" opacity=".5" rx="10.5" transform="rotate(-65.1 1138.98 390.084)"/><rect width="82.611" height="30.843" x="152.992" y="76.923" stroke="#2060f6" stroke-width="3" opacity=".5" rx="10.5" transform="rotate(-65.1 152.992 76.923)"/><rect width="42.28" height="14.9" x="365.992" y="45.341" stroke="#2060f6" stroke-width="3" opacity=".5" rx="4.5" transform="rotate(-65.1 365.992 45.341)"/><rect width="42.28" height="14.9" x="931.992" y="482.341" stroke="#2060f6" stroke-width="3" opacity=".5" rx="4.5" transform="rotate(-65.1 931.992 482.341)"/><rect width="83.406" height="31.158" x="1385.59" y="282.148" stroke="#2060f6" stroke-width="3" opacity=".5" rx="10.5" transform="rotate(-65.1 1385.59 282.148)"/><rect width="148.608" height="55.723" x="1258.01" y="479.275" stroke="#2060f6" stroke-width="5" opacity=".5" rx="9.5" transform="rotate(-65.1 1258.01 479.275)"/><rect width="62.359" height="21.628" x="3.476" y="357.998" stroke="#2060f6" stroke-width="5" opacity=".5" rx="9.5" transform="rotate(-65.1 3.476 357.998)"/><rect width="138.037" height="51.545" x="1194.23" y="187.48" stroke="#2060f6" stroke-width="5" opacity=".5" rx="9.5" transform="rotate(-65.1 1194.23 187.48)"/><rect width="50.687" height="18.223" x="1367.01" y="85.447" stroke="#2060f6" stroke-width="3" opacity=".5" rx="6.5" transform="rotate(-65.1 1367.01 85.447)"/><rect width="138.037" height="51.545" x="190.32" y="339.527" stroke="#2060f6" stroke-width="5" opacity=".5" rx="9.5" transform="rotate(-65.1 190.32 339.527)"/><rect width="88.541" height="31.978" x="52.742" y="530.078" stroke="#2060f6" stroke-width="5" opacity=".5" rx="9.5" transform="rotate(-65.1 52.742 530.078)"/><rect width="42.278" height="14.899" x="400.992" y="433.339" stroke="#2060f6" stroke-width="3" opacity=".5" rx="4.5" transform="rotate(-65.1 400.992 433.339)"/></svg>